<svg width="14" height="12" viewBox="0 0 14 12" fill="none" xmlns="http://www.w3.org/2000/svg">
<path d="M9.23985 2.10003H3.23151L3.61651 1.71503C3.95485 1.37669 3.95485 0.816693 3.61651 0.478359C3.27818 0.140026 2.71818 0.140026 2.37985 0.478359L0.548184 2.31003C0.20985 2.64836 0.20985 3.20836 0.548184 3.54669L2.37985 5.37836C2.55485 5.55336 2.77652 5.63503 2.99818 5.63503C3.21985 5.63503 3.44151 5.55336 3.61651 5.37836C3.95485 5.04003 3.95485 4.48003 3.61651 4.14169L3.31318 3.83836H9.23985C10.7332 3.83836 11.9582 5.05169 11.9582 6.55669C11.9582 8.06169 10.7448 9.27503 9.23985 9.27503H3.49985C3.02152 9.27503 2.62485 9.67169 2.62485 10.15C2.62485 10.6284 3.02152 11.025 3.49985 11.025H9.23985C11.7015 11.025 13.7082 9.01836 13.7082 6.55669C13.7082 4.09503 11.7015 2.10003 9.23985 2.10003Z" fill="#FFF2E7"/>
</svg>
